<svg xmlns="http://www.w3.org/2000/svg" height="48" width="48" viewBox="0 0 48 48"><title>bulb 63</title><g fill="#F7F7F7" class="nc-icon-wrapper"><path data-color="color-2" d="M6,25H2c-0.552,0-1-0.447-1-1s0.448-1,1-1h4c0.552,0,1,0.447,1,1S6.552,25,6,25z"></path> <path data-color="color-2" d="M11.272,12.272c-0.256,0-0.512-0.098-0.707-0.293L7.737,9.15 c-0.391-0.391-0.391-1.023,0-1.414s1.023-0.391,1.414,0l2.828,2.829c0.391,0.391,0.391,1.023,0,1.414 C11.784,12.175,11.528,12.272,11.272,12.272z"></path> <path data-color="color-2" d="M24,7c-0.552,0-1-0.447-1-1V2c0-0.553,0.448-1,1-1s1,0.447,1,1v4C25,6.553,24.552,7,24,7z"></path> <path data-color="color-2" d="M36.728,12.272c-0.256,0-0.512-0.098-0.707-0.293c-0.391-0.391-0.391-1.023,0-1.414 l2.828-2.829c0.39-0.391,1.023-0.391,1.414,0s0.391,1.023,0,1.414l-2.828,2.829C37.24,12.175,36.984,12.272,36.728,12.272z"></path> <path data-color="color-2" d="M46,25h-4c-0.552,0-1-0.447-1-1s0.448-1,1-1h4c0.552,0,1,0.447,1,1S46.552,25,46,25z"></path> <path fill="#F7F7F7" d="M24,11c-7.168,0-13,5.832-13,13c0,5.25,3.187,9.98,8,11.988V42h10v-6.012C33.813,33.98,37,29.25,37,24 C37,16.832,31.168,11,24,11z"></path> <path data-color="color-2" d="M22,47h4c1.657,0,3-1.343,3-3H19C19,45.657,20.343,47,22,47z"></path></g></svg>